<mxfile host="app.diagrams.net" modified="2024-06-15T23:19:18.126Z" agent="Mozilla/5.0 (Windows NT 10.0; Win64; x64) AppleWebKit/537.36 (KHTML, like Gecko) Chrome/125.0.0.0 Safari/537.36" etag="gv1sP2Wr1KtcpLQ1Ueqo" version="24.5.4" type="device">
  <diagram name="PÃ¡gina-1" id="TG7by3KHBy5GFRljhS72">
    <mxGraphModel dx="6633" dy="3576" grid="1" gridSize="10" guides="0" tooltips="1" connect="1" arrows="1" fold="1" page="1" pageScale="1" pageWidth="827" pageHeight="1169" math="0" shadow="0">
      <root>
        <mxCell id="0" />
        <mxCell id="1" parent="0" />
        <mxCell id="4RwAuD5VUIWNmplGEOjf-127" style="edgeStyle=none;rounded=0;orthogonalLoop=1;jettySize=auto;html=1;" parent="1" source="4RwAuD5VUIWNmplGEOjf-1" target="4RwAuD5VUIWNmplGEOjf-106" edge="1">
          <mxGeometry relative="1" as="geometry">
            <mxPoint x="-2040" y="-600" as="sourcePoint" />
          </mxGeometry>
        </mxCell>
        <mxCell id="4RwAuD5VUIWNmplGEOjf-1" value="Repository&lt;div&gt;&lt;br&gt;&lt;/div&gt;" style="swimlane;fontStyle=1;align=center;verticalAlign=top;childLayout=stackLayout;horizontal=1;startSize=26;horizontalStack=0;resizeParent=1;resizeParentMax=0;resizeLast=0;collapsible=1;marginBottom=0;whiteSpace=wrap;html=1;" parent="1" vertex="1">
          <mxGeometry x="-2170" y="-610" width="270" height="200" as="geometry" />
        </mxCell>
        <mxCell id="4RwAuD5VUIWNmplGEOjf-2" value="# conexao&lt;div&gt;&lt;br&gt;&lt;/div&gt;" style="text;strokeColor=none;fillColor=none;align=left;verticalAlign=top;spacingLeft=4;spacingRight=4;overflow=hidden;rotatable=0;points=[[0,0.5],[1,0.5]];portConstraint=eastwest;whiteSpace=wrap;html=1;" parent="4RwAuD5VUIWNmplGEOjf-1" vertex="1">
          <mxGeometry y="26" width="270" height="26" as="geometry" />
        </mxCell>
        <mxCell id="4RwAuD5VUIWNmplGEOjf-3" value="" style="line;strokeWidth=1;fillColor=none;align=left;verticalAlign=middle;spacingTop=-1;spacingLeft=3;spacingRight=3;rotatable=0;labelPosition=right;points=[];portConstraint=eastwest;strokeColor=inherit;" parent="4RwAuD5VUIWNmplGEOjf-1" vertex="1">
          <mxGeometry y="52" width="270" height="8" as="geometry" />
        </mxCell>
        <mxCell id="4RwAuD5VUIWNmplGEOjf-4" value="+ __construct()&lt;div&gt;+ __destruct()&lt;/div&gt;&lt;div&gt;+ executaConsulta($callback)&amp;nbsp;&lt;/div&gt;&lt;div&gt;+ prepareInsert($campos, $tabela, $valores)&lt;/div&gt;&lt;div&gt;+ prepareUpdate($campo, $tabela, $valores, $id)&lt;/div&gt;&lt;div&gt;+ selecionaCampo($campo, $tabela, $valor)&lt;/div&gt;&lt;div&gt;+ retornaConsulta($sql, $valores = NULL)&lt;/div&gt;&lt;div&gt;+ selecionaUsuario($tabela, $email, $senha)&lt;/div&gt;" style="text;strokeColor=none;fillColor=none;align=left;verticalAlign=top;spacingLeft=4;spacingRight=4;overflow=hidden;rotatable=0;points=[[0,0.5],[1,0.5]];portConstraint=eastwest;whiteSpace=wrap;html=1;" parent="4RwAuD5VUIWNmplGEOjf-1" vertex="1">
          <mxGeometry y="60" width="270" height="140" as="geometry" />
        </mxCell>
        <mxCell id="4RwAuD5VUIWNmplGEOjf-10" value="AppointmentRepository&lt;div&gt;&lt;br&gt;&lt;/div&gt;" style="swimlane;fontStyle=1;align=center;verticalAlign=top;childLayout=stackLayout;horizontal=1;startSize=26;horizontalStack=0;resizeParent=1;resizeParentMax=0;resizeLast=0;collapsible=1;marginBottom=0;whiteSpace=wrap;html=1;" parent="1" vertex="1">
          <mxGeometry x="-2690" y="-320" width="290" height="60" as="geometry" />
        </mxCell>
        <mxCell id="4RwAuD5VUIWNmplGEOjf-12" value="" style="line;strokeWidth=1;fillColor=none;align=left;verticalAlign=middle;spacingTop=-1;spacingLeft=3;spacingRight=3;rotatable=0;labelPosition=right;points=[];portConstraint=eastwest;strokeColor=inherit;" parent="4RwAuD5VUIWNmplGEOjf-10" vertex="1">
          <mxGeometry y="26" width="290" height="8" as="geometry" />
        </mxCell>
        <mxCell id="4RwAuD5VUIWNmplGEOjf-13" value="+ CreateAppoitment(Appointment $appointment)&lt;div&gt;&lt;br&gt;&lt;/div&gt;" style="text;strokeColor=none;fillColor=none;align=left;verticalAlign=top;spacingLeft=4;spacingRight=4;overflow=hidden;rotatable=0;points=[[0,0.5],[1,0.5]];portConstraint=eastwest;whiteSpace=wrap;html=1;" parent="4RwAuD5VUIWNmplGEOjf-10" vertex="1">
          <mxGeometry y="34" width="290" height="26" as="geometry" />
        </mxCell>
        <mxCell id="4RwAuD5VUIWNmplGEOjf-14" value="&lt;div&gt;DoctorRepository&lt;/div&gt;&lt;div&gt;&lt;br&gt;&lt;/div&gt;" style="swimlane;fontStyle=1;align=center;verticalAlign=top;childLayout=stackLayout;horizontal=1;startSize=26;horizontalStack=0;resizeParent=1;resizeParentMax=0;resizeLast=0;collapsible=1;marginBottom=0;whiteSpace=wrap;html=1;" parent="1" vertex="1">
          <mxGeometry x="-2370" y="-320" width="290" height="160" as="geometry" />
        </mxCell>
        <mxCell id="4RwAuD5VUIWNmplGEOjf-15" value="" style="line;strokeWidth=1;fillColor=none;align=left;verticalAlign=middle;spacingTop=-1;spacingLeft=3;spacingRight=3;rotatable=0;labelPosition=right;points=[];portConstraint=eastwest;strokeColor=inherit;" parent="4RwAuD5VUIWNmplGEOjf-14" vertex="1">
          <mxGeometry y="26" width="290" height="8" as="geometry" />
        </mxCell>
        <mxCell id="4RwAuD5VUIWNmplGEOjf-16" value="&lt;div&gt;+ getByEspecialidade($especialidade)&lt;/div&gt;&lt;div&gt;+ getHorarios($medico, $data)&lt;/div&gt;&lt;div&gt;+ SelecionaMedico($email, $password)&lt;/div&gt;&lt;div&gt;+ SelecionaEmail($email)&lt;/div&gt;&lt;div&gt;+ SelecionaCrm($crm)&lt;/div&gt;&lt;div&gt;+ SelecionaCPF($cpf)&lt;/div&gt;&lt;div&gt;+ CreateEndereco(Address $endereco)&lt;/div&gt;&lt;div&gt;+ CreateDoctor(Doctor $doctor, $ide, $idf)&lt;/div&gt;&lt;div&gt;&lt;br&gt;&lt;/div&gt;" style="text;strokeColor=none;fillColor=none;align=left;verticalAlign=top;spacingLeft=4;spacingRight=4;overflow=hidden;rotatable=0;points=[[0,0.5],[1,0.5]];portConstraint=eastwest;whiteSpace=wrap;html=1;" parent="4RwAuD5VUIWNmplGEOjf-14" vertex="1">
          <mxGeometry y="34" width="290" height="126" as="geometry" />
        </mxCell>
        <mxCell id="4RwAuD5VUIWNmplGEOjf-17" value="&lt;div&gt;EmployeeRepository&lt;/div&gt;&lt;div&gt;&lt;br&gt;&lt;/div&gt;" style="swimlane;fontStyle=1;align=center;verticalAlign=top;childLayout=stackLayout;horizontal=1;startSize=26;horizontalStack=0;resizeParent=1;resizeParentMax=0;resizeLast=0;collapsible=1;marginBottom=0;whiteSpace=wrap;html=1;" parent="1" vertex="1">
          <mxGeometry x="-2040" y="-320" width="290" height="60" as="geometry" />
        </mxCell>
        <mxCell id="4RwAuD5VUIWNmplGEOjf-18" value="" style="line;strokeWidth=1;fillColor=none;align=left;verticalAlign=middle;spacingTop=-1;spacingLeft=3;spacingRight=3;rotatable=0;labelPosition=right;points=[];portConstraint=eastwest;strokeColor=inherit;" parent="4RwAuD5VUIWNmplGEOjf-17" vertex="1">
          <mxGeometry y="26" width="290" height="8" as="geometry" />
        </mxCell>
        <mxCell id="4RwAuD5VUIWNmplGEOjf-19" value="&lt;div&gt;+ SelecionaFuncionario($email, $password)&lt;/div&gt;" style="text;strokeColor=none;fillColor=none;align=left;verticalAlign=top;spacingLeft=4;spacingRight=4;overflow=hidden;rotatable=0;points=[[0,0.5],[1,0.5]];portConstraint=eastwest;whiteSpace=wrap;html=1;" parent="4RwAuD5VUIWNmplGEOjf-17" vertex="1">
          <mxGeometry y="34" width="290" height="26" as="geometry" />
        </mxCell>
        <mxCell id="4RwAuD5VUIWNmplGEOjf-20" value="&lt;div&gt;PatientRepository&lt;/div&gt;" style="swimlane;fontStyle=1;align=center;verticalAlign=top;childLayout=stackLayout;horizontal=1;startSize=26;horizontalStack=0;resizeParent=1;resizeParentMax=0;resizeLast=0;collapsible=1;marginBottom=0;whiteSpace=wrap;html=1;" parent="1" vertex="1">
          <mxGeometry x="-1690" y="-320" width="290" height="120" as="geometry" />
        </mxCell>
        <mxCell id="4RwAuD5VUIWNmplGEOjf-21" value="" style="line;strokeWidth=1;fillColor=none;align=left;verticalAlign=middle;spacingTop=-1;spacingLeft=3;spacingRight=3;rotatable=0;labelPosition=right;points=[];portConstraint=eastwest;strokeColor=inherit;" parent="4RwAuD5VUIWNmplGEOjf-20" vertex="1">
          <mxGeometry y="26" width="290" height="8" as="geometry" />
        </mxCell>
        <mxCell id="4RwAuD5VUIWNmplGEOjf-22" value="&lt;div&gt;+ SelecionaPaciente($email, $password)&lt;/div&gt;&lt;div&gt;+ SelecionaEmail($email)&lt;/div&gt;&lt;div&gt;+ SelecionaCPF($cpf)&lt;/div&gt;&lt;div&gt;+ CreateEndereco(Address $endereco)&lt;/div&gt;&lt;div&gt;+ CreatePaciente(Patient $patient, $id)&lt;/div&gt;" style="text;strokeColor=none;fillColor=none;align=left;verticalAlign=top;spacingLeft=4;spacingRight=4;overflow=hidden;rotatable=0;points=[[0,0.5],[1,0.5]];portConstraint=eastwest;whiteSpace=wrap;html=1;" parent="4RwAuD5VUIWNmplGEOjf-20" vertex="1">
          <mxGeometry y="34" width="290" height="86" as="geometry" />
        </mxCell>
        <mxCell id="4RwAuD5VUIWNmplGEOjf-25" value="Extends" style="endArrow=block;endSize=16;endFill=0;html=1;rounded=0;entryX=0;entryY=0.5;entryDx=0;entryDy=0;exitX=0.5;exitY=0;exitDx=0;exitDy=0;" parent="1" source="4RwAuD5VUIWNmplGEOjf-10" target="4RwAuD5VUIWNmplGEOjf-4" edge="1">
          <mxGeometry width="160" relative="1" as="geometry">
            <mxPoint x="-3220" y="760" as="sourcePoint" />
            <mxPoint x="-3060" y="760" as="targetPoint" />
          </mxGeometry>
        </mxCell>
        <mxCell id="4RwAuD5VUIWNmplGEOjf-26" value="Extends" style="endArrow=block;endSize=16;endFill=0;html=1;rounded=0;exitX=0.559;exitY=0.013;exitDx=0;exitDy=0;exitPerimeter=0;" parent="1" source="4RwAuD5VUIWNmplGEOjf-14" target="4RwAuD5VUIWNmplGEOjf-4" edge="1">
          <mxGeometry width="160" relative="1" as="geometry">
            <mxPoint x="-2880" y="760" as="sourcePoint" />
            <mxPoint x="-2505" y="620" as="targetPoint" />
          </mxGeometry>
        </mxCell>
        <mxCell id="4RwAuD5VUIWNmplGEOjf-28" value="Extends" style="endArrow=block;endSize=16;endFill=0;html=1;rounded=0;exitX=0.5;exitY=0;exitDx=0;exitDy=0;" parent="1" source="4RwAuD5VUIWNmplGEOjf-17" target="4RwAuD5VUIWNmplGEOjf-4" edge="1">
          <mxGeometry width="160" relative="1" as="geometry">
            <mxPoint x="-1908.6842105263158" y="-320" as="sourcePoint" />
            <mxPoint x="-1792" y="-392" as="targetPoint" />
          </mxGeometry>
        </mxCell>
        <mxCell id="4RwAuD5VUIWNmplGEOjf-29" value="Extends" style="endArrow=block;endSize=16;endFill=0;html=1;rounded=0;exitX=0.5;exitY=0;exitDx=0;exitDy=0;entryX=1;entryY=0.5;entryDx=0;entryDy=0;" parent="1" source="4RwAuD5VUIWNmplGEOjf-20" target="4RwAuD5VUIWNmplGEOjf-4" edge="1">
          <mxGeometry width="160" relative="1" as="geometry">
            <mxPoint x="-2198" y="770" as="sourcePoint" />
            <mxPoint x="-2260" y="700" as="targetPoint" />
          </mxGeometry>
        </mxCell>
        <mxCell id="4RwAuD5VUIWNmplGEOjf-35" value="Address&lt;div&gt;&lt;br&gt;&lt;/div&gt;" style="swimlane;fontStyle=1;align=center;verticalAlign=top;childLayout=stackLayout;horizontal=1;startSize=26;horizontalStack=0;resizeParent=1;resizeParentMax=0;resizeLast=0;collapsible=1;marginBottom=0;whiteSpace=wrap;html=1;" parent="1" vertex="1">
          <mxGeometry x="-3200" y="-820" width="240" height="210" as="geometry" />
        </mxCell>
        <mxCell id="4RwAuD5VUIWNmplGEOjf-36" value="+ id&lt;div&gt;+ cep&lt;/div&gt;&lt;div&gt;+ estado&lt;/div&gt;&lt;div&gt;+ cidade&lt;/div&gt;&lt;div&gt;+ bairro&lt;/div&gt;&lt;div&gt;+ rua&lt;/div&gt;&lt;div&gt;+ numero&lt;/div&gt;&lt;div&gt;+ complemento&lt;/div&gt;" style="text;strokeColor=none;fillColor=none;align=left;verticalAlign=top;spacingLeft=4;spacingRight=4;overflow=hidden;rotatable=0;points=[[0,0.5],[1,0.5]];portConstraint=eastwest;whiteSpace=wrap;html=1;" parent="4RwAuD5VUIWNmplGEOjf-35" vertex="1">
          <mxGeometry y="26" width="240" height="124" as="geometry" />
        </mxCell>
        <mxCell id="4RwAuD5VUIWNmplGEOjf-37" value="" style="line;strokeWidth=1;fillColor=none;align=left;verticalAlign=middle;spacingTop=-1;spacingLeft=3;spacingRight=3;rotatable=0;labelPosition=right;points=[];portConstraint=eastwest;strokeColor=inherit;" parent="4RwAuD5VUIWNmplGEOjf-35" vertex="1">
          <mxGeometry y="150" width="240" height="8" as="geometry" />
        </mxCell>
        <mxCell id="4RwAuD5VUIWNmplGEOjf-38" value="+ static novoEndereco($cep, $estado, $cidade, $bairro, $rua, $numero_casa, $complemento = NULL)" style="text;strokeColor=none;fillColor=none;align=left;verticalAlign=top;spacingLeft=4;spacingRight=4;overflow=hidden;rotatable=0;points=[[0,0.5],[1,0.5]];portConstraint=eastwest;whiteSpace=wrap;html=1;" parent="4RwAuD5VUIWNmplGEOjf-35" vertex="1">
          <mxGeometry y="158" width="240" height="52" as="geometry" />
        </mxCell>
        <mxCell id="4RwAuD5VUIWNmplGEOjf-39" value="Appointment&lt;div&gt;&lt;br&gt;&lt;/div&gt;" style="swimlane;fontStyle=1;align=center;verticalAlign=top;childLayout=stackLayout;horizontal=1;startSize=26;horizontalStack=0;resizeParent=1;resizeParentMax=0;resizeLast=0;collapsible=1;marginBottom=0;whiteSpace=wrap;html=1;" parent="1" vertex="1">
          <mxGeometry x="-3250" y="-40" width="240" height="200" as="geometry" />
        </mxCell>
        <mxCell id="4RwAuD5VUIWNmplGEOjf-40" value="+ id&lt;div&gt;+ StatusConsulta&lt;/div&gt;&lt;div&gt;+ idMedico&lt;/div&gt;&lt;div&gt;+ IdMedico&lt;/div&gt;&lt;div&gt;+ IdPaciente&lt;/div&gt;&lt;div&gt;+ HorarioInicio&lt;/div&gt;&lt;div&gt;+ HorarioFim&lt;/div&gt;&lt;div&gt;+ Diagnostico&lt;/div&gt;&lt;div&gt;+ Tratamento&lt;/div&gt;&lt;div&gt;+ Valor&lt;/div&gt;&lt;div&gt;+ DataConsulta&lt;/div&gt;" style="text;strokeColor=none;fillColor=none;align=left;verticalAlign=top;spacingLeft=4;spacingRight=4;overflow=hidden;rotatable=0;points=[[0,0.5],[1,0.5]];portConstraint=eastwest;whiteSpace=wrap;html=1;" parent="4RwAuD5VUIWNmplGEOjf-39" vertex="1">
          <mxGeometry y="26" width="240" height="164" as="geometry" />
        </mxCell>
        <mxCell id="4RwAuD5VUIWNmplGEOjf-41" value="" style="line;strokeWidth=1;fillColor=none;align=left;verticalAlign=middle;spacingTop=-1;spacingLeft=3;spacingRight=3;rotatable=0;labelPosition=right;points=[];portConstraint=eastwest;strokeColor=inherit;" parent="4RwAuD5VUIWNmplGEOjf-39" vertex="1">
          <mxGeometry y="190" width="240" height="10" as="geometry" />
        </mxCell>
        <mxCell id="4RwAuD5VUIWNmplGEOjf-51" value="&lt;div&gt;Doctor&lt;/div&gt;" style="swimlane;fontStyle=1;align=center;verticalAlign=top;childLayout=stackLayout;horizontal=1;startSize=26;horizontalStack=0;resizeParent=1;resizeParentMax=0;resizeLast=0;collapsible=1;marginBottom=0;whiteSpace=wrap;html=1;" parent="1" vertex="1">
          <mxGeometry x="-3080" y="-440" width="240" height="320" as="geometry" />
        </mxCell>
        <mxCell id="4RwAuD5VUIWNmplGEOjf-52" value="&lt;div&gt;+ Id&lt;/div&gt;&lt;div&gt;+ IdEndereco&lt;/div&gt;&lt;div&gt;+ IdFuncionario&lt;/div&gt;&lt;div&gt;+ Cpf&lt;/div&gt;&lt;div&gt;+ Nome&lt;/div&gt;&lt;div&gt;+ Nascimento&lt;/div&gt;&lt;div&gt;+ Email&lt;/div&gt;&lt;div&gt;+ Senha&lt;/div&gt;&lt;div&gt;+ Telefone&lt;/div&gt;&lt;div&gt;+ Crm&lt;/div&gt;&lt;div&gt;+ DisponibilidadeInicio&lt;/div&gt;&lt;div&gt;+ DisponibilidadeFim&lt;/div&gt;&lt;div&gt;+ Genero&lt;/div&gt;&lt;div&gt;+ Especialidade&lt;/div&gt;" style="text;strokeColor=none;fillColor=none;align=left;verticalAlign=top;spacingLeft=4;spacingRight=4;overflow=hidden;rotatable=0;points=[[0,0.5],[1,0.5]];portConstraint=eastwest;whiteSpace=wrap;html=1;" parent="4RwAuD5VUIWNmplGEOjf-51" vertex="1">
          <mxGeometry y="26" width="240" height="214" as="geometry" />
        </mxCell>
        <mxCell id="4RwAuD5VUIWNmplGEOjf-53" value="" style="line;strokeWidth=1;fillColor=none;align=left;verticalAlign=middle;spacingTop=-1;spacingLeft=3;spacingRight=3;rotatable=0;labelPosition=right;points=[];portConstraint=eastwest;strokeColor=inherit;" parent="4RwAuD5VUIWNmplGEOjf-51" vertex="1">
          <mxGeometry y="240" width="240" height="8" as="geometry" />
        </mxCell>
        <mxCell id="4RwAuD5VUIWNmplGEOjf-54" value="static novoDoctor($cpf, $nome, $nascimento, $email, $senha, $telefone, $crm, $inicio, $fim, $genero, $especialidade)" style="text;strokeColor=none;fillColor=none;align=left;verticalAlign=top;spacingLeft=4;spacingRight=4;overflow=hidden;rotatable=0;points=[[0,0.5],[1,0.5]];portConstraint=eastwest;whiteSpace=wrap;html=1;" parent="4RwAuD5VUIWNmplGEOjf-51" vertex="1">
          <mxGeometry y="248" width="240" height="72" as="geometry" />
        </mxCell>
        <mxCell id="4RwAuD5VUIWNmplGEOjf-55" value="Functions&lt;div&gt;&lt;br&gt;&lt;/div&gt;" style="swimlane;fontStyle=1;align=center;verticalAlign=top;childLayout=stackLayout;horizontal=1;startSize=26;horizontalStack=0;resizeParent=1;resizeParentMax=0;resizeLast=0;collapsible=1;marginBottom=0;whiteSpace=wrap;html=1;" parent="1" vertex="1">
          <mxGeometry x="-3180" y="-1300" width="200" height="230" as="geometry" />
        </mxCell>
        <mxCell id="4RwAuD5VUIWNmplGEOjf-57" value="" style="line;strokeWidth=1;fillColor=none;align=left;verticalAlign=middle;spacingTop=-1;spacingLeft=3;spacingRight=3;rotatable=0;labelPosition=right;points=[];portConstraint=eastwest;strokeColor=inherit;" parent="4RwAuD5VUIWNmplGEOjf-55" vertex="1">
          <mxGeometry y="26" width="200" height="8" as="geometry" />
        </mxCell>
        <mxCell id="4RwAuD5VUIWNmplGEOjf-58" value="+ validaCpf($cpf)&lt;div&gt;+ validaDigitoCpf($cpf, $calculo)&lt;/div&gt;&lt;div&gt;+ validaDigitoCpf($cpf, $calculo)&lt;/div&gt;&lt;div&gt;+ numericoCpf($substrCpf)&lt;/div&gt;&lt;div&gt;+ validaTelefone($telefone)&lt;/div&gt;&lt;div&gt;+ validaNome($nome)&lt;/div&gt;&lt;div&gt;+ validaNascimento($data)&lt;/div&gt;&lt;div&gt;+ validaSenha($senha)&lt;/div&gt;&lt;div&gt;+ validaCEP($cep)&lt;/div&gt;&lt;div&gt;+ verifyInsert($cep, $estado, $cidade, $bairro, $rua, $numero_casa, $complemento = NULL)&lt;/div&gt;" style="text;strokeColor=none;fillColor=none;align=left;verticalAlign=top;spacingLeft=4;spacingRight=4;overflow=hidden;rotatable=0;points=[[0,0.5],[1,0.5]];portConstraint=eastwest;whiteSpace=wrap;html=1;" parent="4RwAuD5VUIWNmplGEOjf-55" vertex="1">
          <mxGeometry y="34" width="200" height="196" as="geometry" />
        </mxCell>
        <mxCell id="4RwAuD5VUIWNmplGEOjf-59" value="FunctionsMed&lt;div&gt;&lt;br&gt;&lt;/div&gt;" style="swimlane;fontStyle=1;align=center;verticalAlign=top;childLayout=stackLayout;horizontal=1;startSize=26;horizontalStack=0;resizeParent=1;resizeParentMax=0;resizeLast=0;collapsible=1;marginBottom=0;whiteSpace=wrap;html=1;" parent="1" vertex="1">
          <mxGeometry x="-2920" y="-1010" width="200" height="150" as="geometry" />
        </mxCell>
        <mxCell id="4RwAuD5VUIWNmplGEOjf-60" value="" style="line;strokeWidth=1;fillColor=none;align=left;verticalAlign=middle;spacingTop=-1;spacingLeft=3;spacingRight=3;rotatable=0;labelPosition=right;points=[];portConstraint=eastwest;strokeColor=inherit;" parent="4RwAuD5VUIWNmplGEOjf-59" vertex="1">
          <mxGeometry y="26" width="200" height="8" as="geometry" />
        </mxCell>
        <mxCell id="4RwAuD5VUIWNmplGEOjf-61" value="+ validaCrm($crm)&lt;div&gt;+ valida_cpfexist($cpf)&lt;/div&gt;&lt;div&gt;+ valida_emailexist($email)&lt;/div&gt;&lt;div&gt;+ valida_crmexist($crm)&lt;/div&gt;&lt;div&gt;+ validaCampos($nome, $cpf , $senha, $telefone, $nascimento, $email, $crm)&lt;/div&gt;" style="text;strokeColor=none;fillColor=none;align=left;verticalAlign=top;spacingLeft=4;spacingRight=4;overflow=hidden;rotatable=0;points=[[0,0.5],[1,0.5]];portConstraint=eastwest;whiteSpace=wrap;html=1;" parent="4RwAuD5VUIWNmplGEOjf-59" vertex="1">
          <mxGeometry y="34" width="200" height="116" as="geometry" />
        </mxCell>
        <mxCell id="4RwAuD5VUIWNmplGEOjf-62" value="&lt;div&gt;FunctionsPatient&lt;/div&gt;&lt;div&gt;&lt;br&gt;&lt;/div&gt;" style="swimlane;fontStyle=1;align=center;verticalAlign=top;childLayout=stackLayout;horizontal=1;startSize=26;horizontalStack=0;resizeParent=1;resizeParentMax=0;resizeLast=0;collapsible=1;marginBottom=0;whiteSpace=wrap;html=1;" parent="1" vertex="1">
          <mxGeometry x="-3440" y="-980" width="200" height="120" as="geometry" />
        </mxCell>
        <mxCell id="4RwAuD5VUIWNmplGEOjf-63" value="" style="line;strokeWidth=1;fillColor=none;align=left;verticalAlign=middle;spacingTop=-1;spacingLeft=3;spacingRight=3;rotatable=0;labelPosition=right;points=[];portConstraint=eastwest;strokeColor=inherit;" parent="4RwAuD5VUIWNmplGEOjf-62" vertex="1">
          <mxGeometry y="26" width="200" height="8" as="geometry" />
        </mxCell>
        <mxCell id="4RwAuD5VUIWNmplGEOjf-64" value="+ valida_cpfexist($cpf)&lt;div&gt;+ valida_emailexist($email)&lt;/div&gt;&lt;div&gt;+ validaCampos($nome, $cpf, $senha, $telefone, $nascimento, $email)&lt;/div&gt;" style="text;strokeColor=none;fillColor=none;align=left;verticalAlign=top;spacingLeft=4;spacingRight=4;overflow=hidden;rotatable=0;points=[[0,0.5],[1,0.5]];portConstraint=eastwest;whiteSpace=wrap;html=1;" parent="4RwAuD5VUIWNmplGEOjf-62" vertex="1">
          <mxGeometry y="34" width="200" height="86" as="geometry" />
        </mxCell>
        <mxCell id="4RwAuD5VUIWNmplGEOjf-65" value="Extends" style="endArrow=block;endSize=16;endFill=0;html=1;rounded=0;exitX=0.75;exitY=0;exitDx=0;exitDy=0;" parent="1" source="4RwAuD5VUIWNmplGEOjf-59" target="4RwAuD5VUIWNmplGEOjf-58" edge="1">
          <mxGeometry width="160" relative="1" as="geometry">
            <mxPoint x="-2060" y="-70" as="sourcePoint" />
            <mxPoint x="-2940" y="-1190" as="targetPoint" />
          </mxGeometry>
        </mxCell>
        <mxCell id="4RwAuD5VUIWNmplGEOjf-66" value="Extends" style="endArrow=block;endSize=16;endFill=0;html=1;rounded=0;exitX=0.321;exitY=0;exitDx=0;exitDy=0;exitPerimeter=0;" parent="1" source="4RwAuD5VUIWNmplGEOjf-62" target="4RwAuD5VUIWNmplGEOjf-58" edge="1">
          <mxGeometry x="-0.0027" y="1" width="160" relative="1" as="geometry">
            <mxPoint x="-1810" y="-90" as="sourcePoint" />
            <mxPoint x="-1856" y="-140" as="targetPoint" />
            <mxPoint as="offset" />
          </mxGeometry>
        </mxCell>
        <mxCell id="4RwAuD5VUIWNmplGEOjf-67" value="Login&lt;div&gt;&lt;br&gt;&lt;/div&gt;" style="swimlane;fontStyle=1;align=center;verticalAlign=top;childLayout=stackLayout;horizontal=1;startSize=26;horizontalStack=0;resizeParent=1;resizeParentMax=0;resizeLast=0;collapsible=1;marginBottom=0;whiteSpace=wrap;html=1;" parent="1" vertex="1">
          <mxGeometry x="-1970" y="-30" width="160" height="180" as="geometry" />
        </mxCell>
        <mxCell id="4RwAuD5VUIWNmplGEOjf-69" value="" style="line;strokeWidth=1;fillColor=none;align=left;verticalAlign=middle;spacingTop=-1;spacingLeft=3;spacingRight=3;rotatable=0;labelPosition=right;points=[];portConstraint=eastwest;strokeColor=inherit;" parent="4RwAuD5VUIWNmplGEOjf-67" vertex="1">
          <mxGeometry y="26" width="160" height="8" as="geometry" />
        </mxCell>
        <mxCell id="4RwAuD5VUIWNmplGEOjf-70" value="+ loginPatient($id, $nome)&lt;div&gt;+ loginEmployee($id, $nome)&lt;/div&gt;&lt;div&gt;+ loginDoctor($id, $nome)&lt;/div&gt;&lt;div&gt;+ logout()&lt;/div&gt;&lt;div&gt;+ verifyLogin()&lt;/div&gt;&lt;div&gt;+ verifyLoginPatient()&lt;/div&gt;&lt;div&gt;+ verifyLoginEmployee()&lt;/div&gt;&lt;div&gt;+ verifyLoginDoctor&lt;/div&gt;" style="text;strokeColor=none;fillColor=none;align=left;verticalAlign=top;spacingLeft=4;spacingRight=4;overflow=hidden;rotatable=0;points=[[0,0.5],[1,0.5]];portConstraint=eastwest;whiteSpace=wrap;html=1;" parent="4RwAuD5VUIWNmplGEOjf-67" vertex="1">
          <mxGeometry y="34" width="160" height="146" as="geometry" />
        </mxCell>
        <mxCell id="4RwAuD5VUIWNmplGEOjf-72" value="&lt;div&gt;Patient&lt;/div&gt;" style="swimlane;fontStyle=1;align=center;verticalAlign=top;childLayout=stackLayout;horizontal=1;startSize=26;horizontalStack=0;resizeParent=1;resizeParentMax=0;resizeLast=0;collapsible=1;marginBottom=0;whiteSpace=wrap;html=1;" parent="1" vertex="1">
          <mxGeometry x="-3410" y="-440" width="240" height="270" as="geometry" />
        </mxCell>
        <mxCell id="4RwAuD5VUIWNmplGEOjf-73" value="+ id&lt;div&gt;+ nome&lt;/div&gt;&lt;div&gt;+ cpf&lt;/div&gt;&lt;div&gt;+ nascimento&lt;/div&gt;&lt;div&gt;+ telefone&lt;/div&gt;&lt;div&gt;+ email&lt;/div&gt;&lt;div&gt;+ necessidadeEspecial&lt;/div&gt;&lt;div&gt;+ necessidade&lt;/div&gt;&lt;div&gt;+ idoso&lt;/div&gt;&lt;div&gt;+ genero&lt;/div&gt;&lt;div&gt;+ senha&lt;/div&gt;" style="text;strokeColor=none;fillColor=none;align=left;verticalAlign=top;spacingLeft=4;spacingRight=4;overflow=hidden;rotatable=0;points=[[0,0.5],[1,0.5]];portConstraint=eastwest;whiteSpace=wrap;html=1;" parent="4RwAuD5VUIWNmplGEOjf-72" vertex="1">
          <mxGeometry y="26" width="240" height="164" as="geometry" />
        </mxCell>
        <mxCell id="4RwAuD5VUIWNmplGEOjf-74" value="" style="line;strokeWidth=1;fillColor=none;align=left;verticalAlign=middle;spacingTop=-1;spacingLeft=3;spacingRight=3;rotatable=0;labelPosition=right;points=[];portConstraint=eastwest;strokeColor=inherit;" parent="4RwAuD5VUIWNmplGEOjf-72" vertex="1">
          <mxGeometry y="190" width="240" height="8" as="geometry" />
        </mxCell>
        <mxCell id="4RwAuD5VUIWNmplGEOjf-75" value="+ static novoPaciente($nome, $cpf, $data_nascimento, $telefone, $email, $senha, $sexo, $pcd = NULL, $deficiencia = NULL, $idoso = NULL&amp;nbsp; &amp;nbsp; )" style="text;strokeColor=none;fillColor=none;align=left;verticalAlign=top;spacingLeft=4;spacingRight=4;overflow=hidden;rotatable=0;points=[[0,0.5],[1,0.5]];portConstraint=eastwest;whiteSpace=wrap;html=1;" parent="4RwAuD5VUIWNmplGEOjf-72" vertex="1">
          <mxGeometry y="198" width="240" height="72" as="geometry" />
        </mxCell>
        <mxCell id="4RwAuD5VUIWNmplGEOjf-91" value="" style="endArrow=diamondThin;endFill=1;endSize=24;html=1;rounded=0;exitX=0.458;exitY=1;exitDx=0;exitDy=0;exitPerimeter=0;" parent="1" source="4RwAuD5VUIWNmplGEOjf-38" target="4RwAuD5VUIWNmplGEOjf-72" edge="1">
          <mxGeometry width="160" relative="1" as="geometry">
            <mxPoint x="-3080" y="-510" as="sourcePoint" />
            <mxPoint x="-2920" y="-510" as="targetPoint" />
          </mxGeometry>
        </mxCell>
        <mxCell id="4RwAuD5VUIWNmplGEOjf-93" value="" style="endArrow=diamondThin;endFill=1;endSize=24;html=1;rounded=0;entryX=0.444;entryY=-0.002;entryDx=0;entryDy=0;entryPerimeter=0;" parent="1" source="4RwAuD5VUIWNmplGEOjf-38" target="4RwAuD5VUIWNmplGEOjf-51" edge="1">
          <mxGeometry width="160" relative="1" as="geometry">
            <mxPoint x="-2882" y="-630" as="sourcePoint" />
            <mxPoint x="-3010" y="-460" as="targetPoint" />
          </mxGeometry>
        </mxCell>
        <mxCell id="4RwAuD5VUIWNmplGEOjf-103" value="Conexao" style="swimlane;fontStyle=1;align=center;verticalAlign=top;childLayout=stackLayout;horizontal=1;startSize=26;horizontalStack=0;resizeParent=1;resizeParentMax=0;resizeLast=0;collapsible=1;marginBottom=0;whiteSpace=wrap;html=1;" parent="1" vertex="1">
          <mxGeometry x="-2120" y="-830" width="160" height="100" as="geometry" />
        </mxCell>
        <mxCell id="4RwAuD5VUIWNmplGEOjf-104" value="- conexao" style="text;strokeColor=none;fillColor=none;align=left;verticalAlign=top;spacingLeft=4;spacingRight=4;overflow=hidden;rotatable=0;points=[[0,0.5],[1,0.5]];portConstraint=eastwest;whiteSpace=wrap;html=1;" parent="4RwAuD5VUIWNmplGEOjf-103" vertex="1">
          <mxGeometry y="26" width="160" height="26" as="geometry" />
        </mxCell>
        <mxCell id="4RwAuD5VUIWNmplGEOjf-105" value="" style="line;strokeWidth=1;fillColor=none;align=left;verticalAlign=middle;spacingTop=-1;spacingLeft=3;spacingRight=3;rotatable=0;labelPosition=right;points=[];portConstraint=eastwest;strokeColor=inherit;" parent="4RwAuD5VUIWNmplGEOjf-103" vertex="1">
          <mxGeometry y="52" width="160" height="8" as="geometry" />
        </mxCell>
        <mxCell id="4RwAuD5VUIWNmplGEOjf-106" value="+ __construct()&lt;div&gt;+ getConexao()&lt;/div&gt;" style="text;strokeColor=none;fillColor=none;align=left;verticalAlign=top;spacingLeft=4;spacingRight=4;overflow=hidden;rotatable=0;points=[[0,0.5],[1,0.5]];portConstraint=eastwest;whiteSpace=wrap;html=1;" parent="4RwAuD5VUIWNmplGEOjf-103" vertex="1">
          <mxGeometry y="60" width="160" height="40" as="geometry" />
        </mxCell>
        <mxCell id="4RwAuD5VUIWNmplGEOjf-107" value="1" style="text;html=1;align=center;verticalAlign=middle;resizable=0;points=[];autosize=1;strokeColor=none;fillColor=none;" parent="1" vertex="1">
          <mxGeometry x="-3126" y="-606" width="30" height="30" as="geometry" />
        </mxCell>
        <mxCell id="4RwAuD5VUIWNmplGEOjf-109" value="1" style="text;html=1;align=center;verticalAlign=middle;resizable=0;points=[];autosize=1;strokeColor=none;fillColor=none;" parent="1" vertex="1">
          <mxGeometry x="-3062" y="-607" width="30" height="30" as="geometry" />
        </mxCell>
        <mxCell id="4RwAuD5VUIWNmplGEOjf-110" value="1..*" style="text;html=1;align=center;verticalAlign=middle;resizable=0;points=[];autosize=1;strokeColor=none;fillColor=none;" parent="1" vertex="1">
          <mxGeometry x="-2997" y="-489" width="40" height="30" as="geometry" />
        </mxCell>
        <mxCell id="4RwAuD5VUIWNmplGEOjf-111" value="1..*" style="text;html=1;align=center;verticalAlign=middle;resizable=0;points=[];autosize=1;strokeColor=none;fillColor=none;" parent="1" vertex="1">
          <mxGeometry x="-3212" y="-489" width="40" height="30" as="geometry" />
        </mxCell>
        <mxCell id="4RwAuD5VUIWNmplGEOjf-115" value="" style="endArrow=none;html=1;rounded=0;exitX=0.5;exitY=0;exitDx=0;exitDy=0;" parent="1" source="4RwAuD5VUIWNmplGEOjf-39" target="4RwAuD5VUIWNmplGEOjf-75" edge="1">
          <mxGeometry width="50" height="50" relative="1" as="geometry">
            <mxPoint x="-3330" y="-80" as="sourcePoint" />
            <mxPoint x="-3280" y="-130" as="targetPoint" />
          </mxGeometry>
        </mxCell>
        <mxCell id="4RwAuD5VUIWNmplGEOjf-116" value="" style="endArrow=none;html=1;rounded=0;exitX=0.5;exitY=0;exitDx=0;exitDy=0;" parent="1" source="4RwAuD5VUIWNmplGEOjf-39" target="4RwAuD5VUIWNmplGEOjf-54" edge="1">
          <mxGeometry width="50" height="50" relative="1" as="geometry">
            <mxPoint x="-3000" y="-70" as="sourcePoint" />
            <mxPoint x="-2950" y="-120" as="targetPoint" />
          </mxGeometry>
        </mxCell>
        <mxCell id="4RwAuD5VUIWNmplGEOjf-118" value="Agenda" style="text;html=1;align=center;verticalAlign=middle;whiteSpace=wrap;rounded=0;" parent="1" vertex="1">
          <mxGeometry x="-3230" y="-90" width="60" height="30" as="geometry" />
        </mxCell>
        <mxCell id="4RwAuD5VUIWNmplGEOjf-120" value="Realiza&lt;div&gt;&lt;br&gt;&lt;/div&gt;" style="text;html=1;align=center;verticalAlign=middle;whiteSpace=wrap;rounded=0;" parent="1" vertex="1">
          <mxGeometry x="-3060" y="-90" width="60" height="30" as="geometry" />
        </mxCell>
        <mxCell id="4RwAuD5VUIWNmplGEOjf-121" value="1" style="text;html=1;align=center;verticalAlign=middle;whiteSpace=wrap;rounded=0;" parent="1" vertex="1">
          <mxGeometry x="-3290" y="-160" width="60" height="30" as="geometry" />
        </mxCell>
        <mxCell id="4RwAuD5VUIWNmplGEOjf-122" value="1" style="text;html=1;align=center;verticalAlign=middle;whiteSpace=wrap;rounded=0;" parent="1" vertex="1">
          <mxGeometry x="-3020" y="-120" width="60" height="30" as="geometry" />
        </mxCell>
        <mxCell id="4RwAuD5VUIWNmplGEOjf-123" value="0..*" style="text;html=1;align=center;verticalAlign=middle;whiteSpace=wrap;rounded=0;" parent="1" vertex="1">
          <mxGeometry x="-3200" y="-70" width="60" height="30" as="geometry" />
        </mxCell>
        <mxCell id="4RwAuD5VUIWNmplGEOjf-125" value="0..*" style="text;html=1;align=center;verticalAlign=middle;whiteSpace=wrap;rounded=0;" parent="1" vertex="1">
          <mxGeometry x="-3110" y="-70" width="60" height="30" as="geometry" />
        </mxCell>
        <mxCell id="4RwAuD5VUIWNmplGEOjf-128" value="obtem" style="text;html=1;align=center;verticalAlign=middle;whiteSpace=wrap;rounded=0;" parent="1" vertex="1">
          <mxGeometry x="-2090" y="-670" width="60" height="30" as="geometry" />
        </mxCell>
        <mxCell id="4RwAuD5VUIWNmplGEOjf-129" value="1" style="text;html=1;align=center;verticalAlign=middle;whiteSpace=wrap;rounded=0;" parent="1" vertex="1">
          <mxGeometry x="-2090" y="-720" width="60" height="30" as="geometry" />
        </mxCell>
        <mxCell id="4RwAuD5VUIWNmplGEOjf-131" value="0..*" style="text;html=1;align=center;verticalAlign=middle;whiteSpace=wrap;rounded=0;" parent="1" vertex="1">
          <mxGeometry x="-2080" y="-640" width="60" height="30" as="geometry" />
        </mxCell>
        <mxCell id="4RwAuD5VUIWNmplGEOjf-133" value="" style="endArrow=none;html=1;rounded=0;exitX=0.5;exitY=0;exitDx=0;exitDy=0;" parent="1" source="4RwAuD5VUIWNmplGEOjf-67" target="4RwAuD5VUIWNmplGEOjf-16" edge="1">
          <mxGeometry width="50" height="50" relative="1" as="geometry">
            <mxPoint x="-2010" y="-160" as="sourcePoint" />
            <mxPoint x="-1960" y="-210" as="targetPoint" />
          </mxGeometry>
        </mxCell>
        <mxCell id="4RwAuD5VUIWNmplGEOjf-134" value="" style="endArrow=none;html=1;rounded=0;exitX=0.5;exitY=0;exitDx=0;exitDy=0;" parent="1" source="4RwAuD5VUIWNmplGEOjf-67" target="4RwAuD5VUIWNmplGEOjf-19" edge="1">
          <mxGeometry width="50" height="50" relative="1" as="geometry">
            <mxPoint x="-1690" y="-90" as="sourcePoint" />
            <mxPoint x="-1885.267489711934" y="-260" as="targetPoint" />
          </mxGeometry>
        </mxCell>
        <mxCell id="4RwAuD5VUIWNmplGEOjf-135" value="" style="endArrow=none;html=1;rounded=0;entryX=0.5;entryY=0.996;entryDx=0;entryDy=0;entryPerimeter=0;exitX=0.5;exitY=0;exitDx=0;exitDy=0;" parent="1" source="4RwAuD5VUIWNmplGEOjf-67" target="4RwAuD5VUIWNmplGEOjf-22" edge="1">
          <mxGeometry width="50" height="50" relative="1" as="geometry">
            <mxPoint x="-1880" y="-20" as="sourcePoint" />
            <mxPoint x="-1875" y="-250" as="targetPoint" />
          </mxGeometry>
        </mxCell>
        <mxCell id="4RwAuD5VUIWNmplGEOjf-136" value="conecta" style="text;html=1;align=center;verticalAlign=middle;whiteSpace=wrap;rounded=0;" parent="1" vertex="1">
          <mxGeometry x="-2030" y="-90" width="60" height="30" as="geometry" />
        </mxCell>
        <mxCell id="4RwAuD5VUIWNmplGEOjf-137" value="conecta" style="text;html=1;align=center;verticalAlign=middle;whiteSpace=wrap;rounded=0;" parent="1" vertex="1">
          <mxGeometry x="-1890" y="-90" width="60" height="30" as="geometry" />
        </mxCell>
        <mxCell id="4RwAuD5VUIWNmplGEOjf-138" value="conecta" style="text;html=1;align=center;verticalAlign=middle;whiteSpace=wrap;rounded=0;" parent="1" vertex="1">
          <mxGeometry x="-1790" y="-90" width="60" height="30" as="geometry" />
        </mxCell>
        <mxCell id="4RwAuD5VUIWNmplGEOjf-139" value="1" style="text;html=1;align=center;verticalAlign=middle;whiteSpace=wrap;rounded=0;" parent="1" vertex="1">
          <mxGeometry x="-2100" y="-160" width="60" height="30" as="geometry" />
        </mxCell>
        <mxCell id="4RwAuD5VUIWNmplGEOjf-140" value="1" style="text;html=1;align=center;verticalAlign=middle;whiteSpace=wrap;rounded=0;" parent="1" vertex="1">
          <mxGeometry x="-1940" y="-70" width="60" height="30" as="geometry" />
        </mxCell>
        <mxCell id="4RwAuD5VUIWNmplGEOjf-141" value="1" style="text;html=1;align=center;verticalAlign=middle;whiteSpace=wrap;rounded=0;" parent="1" vertex="1">
          <mxGeometry x="-1910" y="-260" width="60" height="30" as="geometry" />
        </mxCell>
        <mxCell id="4RwAuD5VUIWNmplGEOjf-142" value="1" style="text;html=1;align=center;verticalAlign=middle;whiteSpace=wrap;rounded=0;" parent="1" vertex="1">
          <mxGeometry x="-1910" y="-70" width="60" height="30" as="geometry" />
        </mxCell>
        <mxCell id="4RwAuD5VUIWNmplGEOjf-143" value="1" style="text;html=1;align=center;verticalAlign=middle;whiteSpace=wrap;rounded=0;" parent="1" vertex="1">
          <mxGeometry x="-1890" y="-50" width="60" height="30" as="geometry" />
        </mxCell>
        <mxCell id="4RwAuD5VUIWNmplGEOjf-145" value="1" style="text;html=1;align=center;verticalAlign=middle;whiteSpace=wrap;rounded=0;" parent="1" vertex="1">
          <mxGeometry x="-1570" y="-200" width="60" height="30" as="geometry" />
        </mxCell>
        <mxCell id="0035-58avTBZ9zxjC0dV-1" value="" style="endArrow=none;html=1;rounded=0;fontSize=12;startSize=8;endSize=8;curved=1;entryX=0.399;entryY=1.053;entryDx=0;entryDy=0;entryPerimeter=0;exitX=0.213;exitY=0.001;exitDx=0;exitDy=0;exitPerimeter=0;" edge="1" parent="1" source="4RwAuD5VUIWNmplGEOjf-72" target="4RwAuD5VUIWNmplGEOjf-64">
          <mxGeometry width="50" height="50" relative="1" as="geometry">
            <mxPoint x="-3360" y="-450" as="sourcePoint" />
            <mxPoint x="-2960" y="-600" as="targetPoint" />
          </mxGeometry>
        </mxCell>
        <mxCell id="0035-58avTBZ9zxjC0dV-2" value="" style="endArrow=none;html=1;rounded=0;fontSize=12;startSize=8;endSize=8;curved=1;exitX=0.82;exitY=0;exitDx=0;exitDy=0;entryX=0.184;entryY=1.002;entryDx=0;entryDy=0;entryPerimeter=0;exitPerimeter=0;" edge="1" parent="1" source="4RwAuD5VUIWNmplGEOjf-51" target="4RwAuD5VUIWNmplGEOjf-61">
          <mxGeometry width="50" height="50" relative="1" as="geometry">
            <mxPoint x="-2810" y="-460" as="sourcePoint" />
            <mxPoint x="-2801" y="-880" as="targetPoint" />
          </mxGeometry>
        </mxCell>
        <mxCell id="0035-58avTBZ9zxjC0dV-3" value="Verifica dados" style="text;html=1;align=center;verticalAlign=middle;whiteSpace=wrap;rounded=0;fontSize=16;" vertex="1" parent="1">
          <mxGeometry x="-2870" y="-670" width="60" height="30" as="geometry" />
        </mxCell>
        <mxCell id="0035-58avTBZ9zxjC0dV-4" value="Verifica dados" style="text;html=1;align=center;verticalAlign=middle;whiteSpace=wrap;rounded=0;fontSize=16;" vertex="1" parent="1">
          <mxGeometry x="-3430" y="-670" width="60" height="30" as="geometry" />
        </mxCell>
        <mxCell id="0035-58avTBZ9zxjC0dV-5" value="" style="endArrow=none;html=1;rounded=0;fontSize=12;startSize=8;endSize=8;curved=1;exitX=0.999;exitY=0.939;exitDx=0;exitDy=0;exitPerimeter=0;" edge="1" parent="1" source="4RwAuD5VUIWNmplGEOjf-52" target="4RwAuD5VUIWNmplGEOjf-16">
          <mxGeometry width="50" height="50" relative="1" as="geometry">
            <mxPoint x="-2780" y="-220" as="sourcePoint" />
            <mxPoint x="-2730" y="-270" as="targetPoint" />
          </mxGeometry>
        </mxCell>
        <mxCell id="0035-58avTBZ9zxjC0dV-6" value="Insere&amp;nbsp;&lt;div&gt;&lt;br&gt;&lt;/div&gt;" style="text;html=1;align=center;verticalAlign=middle;whiteSpace=wrap;rounded=0;fontSize=16;" vertex="1" parent="1">
          <mxGeometry x="-2690" y="-210" width="60" height="30" as="geometry" />
        </mxCell>
        <mxCell id="0035-58avTBZ9zxjC0dV-12" value="" style="endArrow=none;html=1;rounded=0;fontSize=12;startSize=8;endSize=8;curved=1;entryX=0.753;entryY=0.988;entryDx=0;entryDy=0;entryPerimeter=0;exitX=0.007;exitY=0.886;exitDx=0;exitDy=0;exitPerimeter=0;" edge="1" parent="1" source="4RwAuD5VUIWNmplGEOjf-73" target="4RwAuD5VUIWNmplGEOjf-22">
          <mxGeometry width="50" height="50" relative="1" as="geometry">
            <mxPoint x="-1472" y="230" as="sourcePoint" />
            <mxPoint x="-1460" y="-110" as="targetPoint" />
            <Array as="points">
              <mxPoint x="-3610" y="20" />
              <mxPoint x="-2980" y="400" />
              <mxPoint x="-1360" y="140" />
            </Array>
          </mxGeometry>
        </mxCell>
        <mxCell id="0035-58avTBZ9zxjC0dV-19" value="Insere&lt;div&gt;&lt;br&gt;&lt;/div&gt;" style="text;html=1;align=center;verticalAlign=middle;whiteSpace=wrap;rounded=0;fontSize=16;" vertex="1" parent="1">
          <mxGeometry x="-2550" y="280" width="60" height="30" as="geometry" />
        </mxCell>
        <mxCell id="0035-58avTBZ9zxjC0dV-21" value="" style="endArrow=none;html=1;rounded=0;fontSize=12;startSize=8;endSize=8;curved=1;exitX=0.499;exitY=1.133;exitDx=0;exitDy=0;exitPerimeter=0;entryX=0.994;entryY=0.838;entryDx=0;entryDy=0;entryPerimeter=0;" edge="1" parent="1" source="4RwAuD5VUIWNmplGEOjf-13" target="4RwAuD5VUIWNmplGEOjf-40">
          <mxGeometry width="50" height="50" relative="1" as="geometry">
            <mxPoint x="-2510" y="-40" as="sourcePoint" />
            <mxPoint x="-2460" y="-90" as="targetPoint" />
          </mxGeometry>
        </mxCell>
        <mxCell id="0035-58avTBZ9zxjC0dV-23" value="Insere&lt;div&gt;&lt;br&gt;&lt;/div&gt;" style="text;html=1;align=center;verticalAlign=middle;whiteSpace=wrap;rounded=0;fontSize=16;" vertex="1" parent="1">
          <mxGeometry x="-2780" y="-60" width="60" height="30" as="geometry" />
        </mxCell>
        <mxCell id="0035-58avTBZ9zxjC0dV-56" value="1&lt;div&gt;&lt;br&gt;&lt;/div&gt;" style="text;html=1;align=center;verticalAlign=middle;whiteSpace=wrap;rounded=0;fontSize=16;" vertex="1" parent="1">
          <mxGeometry x="-1470" y="-190" width="60" height="30" as="geometry" />
        </mxCell>
        <mxCell id="0035-58avTBZ9zxjC0dV-57" value="1&lt;div&gt;&lt;br&gt;&lt;/div&gt;" style="text;html=1;align=center;verticalAlign=middle;whiteSpace=wrap;rounded=0;fontSize=16;" vertex="1" parent="1">
          <mxGeometry x="-3480" y="-240" width="60" height="30" as="geometry" />
        </mxCell>
        <mxCell id="0035-58avTBZ9zxjC0dV-58" value="1&lt;div&gt;&lt;br&gt;&lt;/div&gt;" style="text;html=1;align=center;verticalAlign=middle;whiteSpace=wrap;rounded=0;fontSize=16;" vertex="1" parent="1">
          <mxGeometry x="-3020" y="70" width="60" height="30" as="geometry" />
        </mxCell>
        <mxCell id="0035-58avTBZ9zxjC0dV-60" value="1&lt;div&gt;&lt;br&gt;&lt;/div&gt;" style="text;html=1;align=center;verticalAlign=middle;whiteSpace=wrap;rounded=0;fontSize=16;" vertex="1" parent="1">
          <mxGeometry x="-2560" y="-250" width="60" height="30" as="geometry" />
        </mxCell>
        <mxCell id="0035-58avTBZ9zxjC0dV-61" value="1&lt;div&gt;&lt;br&gt;&lt;/div&gt;" style="text;html=1;align=center;verticalAlign=middle;whiteSpace=wrap;rounded=0;fontSize=16;" vertex="1" parent="1">
          <mxGeometry x="-2840" y="-240" width="60" height="30" as="geometry" />
        </mxCell>
        <mxCell id="0035-58avTBZ9zxjC0dV-62" value="1&lt;div&gt;&lt;br&gt;&lt;/div&gt;" style="text;html=1;align=center;verticalAlign=middle;whiteSpace=wrap;rounded=0;fontSize=16;" vertex="1" parent="1">
          <mxGeometry x="-2440" y="-210" width="60" height="30" as="geometry" />
        </mxCell>
      </root>
    </mxGraphModel>
  </diagram>
</mxfile>
